<svg width="165" height="34" viewBox="0 0 165 34" fill="none" xmlns="http://www.w3.org/2000/svg">
<path d="M24.108 6.91472L16.6724 6.91472L16.6724 0L0 0L3.09157e-09 26.524L6.75653 26.524L6.75653 33.4343L32.1944 33.4343L32.1944 15.2009L24.1132 6.9156L24.1089 6.9156L24.108 6.91472ZM24.2909 25.3443L7.90265 25.3443L7.90265 8.09444L15.5211 8.09444L15.5211 15.0048L24.2909 15.0048L24.2909 25.3399L24.2909 25.3443Z" fill="#CAFBFF"/>
<path d="M47.8895 0.378296L47.8895 15.5009L48.803 15.5009C51.9117 10.6791 54.2855 8.89941 57.3942 8.89941C62.9702 8.89941 66.6224 13.6729 66.6224 21.1189C66.6224 28.565 62.8303 33.9481 57.3942 33.9481C54.2434 33.9481 52.0945 32.2159 48.803 26.8328L47.8895 26.8328L47.8895 33.1511L43.5025 33.1511L43.5025 0.378296L47.8895 0.378296ZM56.43 30.0174C59.628 30.0174 62.2774 26.1792 62.2774 21.1224C62.2774 16.0657 59.7207 12.8371 56.43 12.8371C53.6442 12.8371 51.7245 14.7083 47.656 21.1224C51.9958 28.3336 53.5969 30.0174 56.43 30.0174Z" fill="white"/>
<path d="M74.0708 0.378296L74.0708 6.23117L69.4546 6.23117L69.4546 0.378296L74.0708 0.378296ZM73.9309 9.74307L73.9309 33.1511L69.5439 33.1511L69.5439 9.74307L73.9309 9.74307Z" fill="white"/>
<path d="M86.3605 33.3384C81.6087 33.3384 79.1413 30.6711 79.1413 25.6618L79.1413 13.0201L75.9433 13.0201L75.9433 9.74304L79.1413 9.74304L79.1413 3.65527L83.5283 3.65527L83.5283 9.74304L90.017 9.74304L90.017 13.0201L83.5283 13.0201L83.5283 25.6618C83.5283 28.3292 84.7173 29.6391 87.0911 29.6391C87.9153 29.6391 88.6451 29.5476 89.7414 29.3567L90.2891 32.9161C88.9172 33.1994 87.6861 33.3384 86.3605 33.3384Z" fill="white"/>
<path d="M96.6421 9.74311L96.6421 15.4086L97.5556 15.4086C100.112 10.5393 101.989 8.89856 105.004 8.89856L106.193 8.89856L106.193 14.0943L103.59 14.0943C101.076 14.0943 99.1567 16.1089 96.6464 21.5835L96.6464 33.1458L92.2594 33.1458L92.2594 9.74223L96.6464 9.74223L96.6421 9.74223L96.6421 9.74311Z" fill="white"/>
<path d="M118.119 8.89941C124.79 8.89941 129.131 13.8171 129.131 21.4022L129.131 22.2899L111.358 22.2899C111.634 27.1592 114.327 30.2013 118.395 30.2013C121.958 30.2013 124.336 28.2826 125.25 24.6308L129.178 25.6144C127.76 30.906 123.879 33.9481 118.396 33.9481C111.542 33.9481 107.113 29.0788 107.113 21.4453C107.113 13.8127 111.452 8.89941 118.125 8.89941L118.12 8.89941L118.119 8.89941ZM124.88 19.948C124.515 15.1262 122 12.4104 118.119 12.4104C114.237 12.4104 111.812 15.3127 111.4 19.948L124.88 19.948Z" fill="white"/>
<path d="M140.278 12.3198C137.675 12.3198 135.938 13.8646 135.938 16.0191C135.938 21.4022 149.553 17.6114 149.553 26.5548C149.553 30.9543 146.08 34.0009 141.009 34.0009C136.392 34.0009 132.74 32.1728 131.139 27.3518L134.795 26.1334C135.802 29.362 138.087 30.5805 140.779 30.5805C143.659 30.5805 145.438 28.8966 145.438 26.5073C145.438 21.2632 131.87 25.1974 131.87 15.9716C131.87 11.8509 135.386 8.90027 140.367 8.90027C144.024 8.90027 147.816 11.0064 149 14.988L145.484 16.1106C144.478 13.4907 142.15 12.3198 140.273 12.3198L140.277 12.3198L140.278 12.3198Z" fill="white"/>
<path d="M161.069 33.3384C156.318 33.3384 153.85 30.6711 153.85 25.6618L153.85 13.0201L150.652 13.0201L150.652 9.74304L153.85 9.74304L153.85 3.65527L158.237 3.65527L158.237 9.74304L164.726 9.74304L164.726 13.0201L158.237 13.0201L158.237 25.6618C158.237 28.3292 159.426 29.6391 161.8 29.6391C162.624 29.6391 163.354 29.5476 164.45 29.3567L164.998 32.9161C163.626 33.1994 162.395 33.3384 161.069 33.3384Z" fill="white"/>
</svg>
