<svg width="31" height="31" viewBox="0 0 31 31" fill="none" xmlns="http://www.w3.org/2000/svg">
<path d="M15.5 0C6.93937 0 0 6.93937 0 15.5C0 24.0606 6.93937 31 15.5 31C24.0606 31 31 24.0606 31 15.5C31 6.93937 24.0606 0 15.5 0ZM20.6431 22.35C20.3994 22.5925 20.1438 22.8469 19.9363 23.055C19.7494 23.2425 19.6175 23.4737 19.5506 23.7244C19.4562 24.0781 19.38 24.4356 19.2525 24.7787L18.1656 27.7069C17.3056 27.8944 16.4156 28 15.5 28V26.2887C15.6056 25.5 15.0225 24.0225 14.0856 23.0856C13.7106 22.7106 13.5 22.2019 13.5 21.6712V19.6706C13.5 18.9431 13.1081 18.2744 12.4712 17.9225C11.5731 17.4256 10.2956 16.7312 9.42062 16.2906C8.70312 15.9294 8.03938 15.4694 7.4425 14.9312L7.3925 14.8862C6.96566 14.501 6.5867 14.0658 6.26375 13.59C5.6775 12.7294 4.7225 11.3138 4.10187 10.3938C5.38125 7.55 7.68688 5.26625 10.5519 4.02563L12.0525 4.77625C12.7175 5.10875 13.5 4.62563 13.5 3.88188V3.17563C13.9994 3.095 14.5075 3.04375 15.0244 3.02437L16.7931 4.79313C17.1838 5.18375 17.1838 5.81687 16.7931 6.2075L16.5 6.5L15.8538 7.14625C15.6588 7.34125 15.6588 7.65812 15.8538 7.85312L16.1469 8.14625C16.3419 8.34125 16.3419 8.65812 16.1469 8.85312L15.6469 9.35312C15.553 9.44682 15.4258 9.49942 15.2931 9.49938H14.7312C14.6012 9.49938 14.4762 9.55 14.3825 9.64125L13.7625 10.2444C13.6865 10.3184 13.636 10.4146 13.6182 10.5192C13.6005 10.6238 13.6164 10.7313 13.6637 10.8263L14.6381 12.7756C14.8044 13.1081 14.5625 13.4994 14.1912 13.4994H13.8387C13.7181 13.4994 13.6019 13.4556 13.5112 13.3769L12.9312 12.8731C12.8 12.7593 12.6414 12.6815 12.471 12.6476C12.3006 12.6136 12.1243 12.6245 11.9594 12.6794L10.0112 13.3287C9.86252 13.3783 9.73316 13.4735 9.64152 13.6007C9.54987 13.7279 9.50058 13.8807 9.50062 14.0375C9.50062 14.3206 9.66062 14.5787 9.91375 14.7056L10.6062 15.0519C11.1944 15.3463 11.8431 15.4994 12.5006 15.4994C13.1581 15.4994 13.9125 17.205 14.5006 17.4994H18.6725C19.2031 17.4994 19.7113 17.71 20.0869 18.085L20.9425 18.9406C21.2999 19.2982 21.5007 19.7831 21.5006 20.2887C21.5005 20.6719 21.4247 21.0512 21.2775 21.4049C21.1304 21.7587 20.9148 22.0798 20.6431 22.35ZM26.0625 16.6406C25.7006 16.55 25.385 16.3281 25.1781 16.0175L24.0544 14.3319C23.8899 14.0856 23.8022 13.7961 23.8022 13.5C23.8022 13.2039 23.8899 12.9144 24.0544 12.6681L25.2787 10.8319C25.4237 10.615 25.6225 10.4388 25.8563 10.3225L26.6675 9.91687C27.5125 11.5994 28 13.4919 28 15.5C28 16.0419 27.9537 16.5725 27.8862 17.0963L26.0625 16.6406Z" fill="#D3FAFE"/>
</svg>
