<svg width="18" height="22" viewBox="0 0 18 22" fill="none" xmlns="http://www.w3.org/2000/svg">
<g clip-path="url(#clip0_24_31)">
<path d="M16.7393 7.76908C16.6215 7.86047 14.542 9.03222 14.542 11.6377C14.542 14.6514 17.1881 15.7175 17.2673 15.7439C17.2551 15.8089 16.8469 17.204 15.8721 18.6256C15.003 19.8765 14.0952 21.1255 12.7143 21.1255C11.3334 21.1255 10.978 20.3233 9.38382 20.3233C7.83028 20.3233 7.27791 21.1519 6.01477 21.1519C4.75163 21.1519 3.87028 19.9943 2.85693 18.5728C1.68314 16.9035 0.734772 14.3102 0.734772 11.8489C0.734772 7.90108 3.30166 5.80736 5.82794 5.80736C7.17028 5.80736 8.28923 6.68871 9.132 6.68871C9.93416 6.68871 11.1851 5.75456 12.7122 5.75456C13.291 5.75456 15.3705 5.80736 16.7393 7.76908ZM11.9873 4.08324C12.6188 3.33388 13.0656 2.29413 13.0656 1.25438C13.0656 1.11019 13.0534 0.963976 13.027 0.846191C11.9994 0.884776 10.7769 1.53056 10.0398 2.38551C9.46099 3.04348 8.9208 4.08324 8.9208 5.13721C8.9208 5.29561 8.9472 5.45401 8.95939 5.50478C9.02437 5.51696 9.12997 5.53118 9.23557 5.53118C10.1575 5.53118 11.3171 4.91382 11.9873 4.08324Z" fill="#D4FAFE"/>
</g>
<defs>
<clipPath id="clip0_24_31">
<rect width="16.5305" height="20.3077" fill="white" transform="translate(0.734772 0.846191)"/>
</clipPath>
</defs>
</svg>
