<svg width="15" height="15" viewBox="0 0 15 15" fill="none" xmlns="http://www.w3.org/2000/svg">
<path d="M12.292 2.29175H11.8753C11.4151 2.29175 11.042 2.66484 11.042 3.12508V11.8751C11.042 12.3353 11.4151 12.7084 11.8753 12.7084H12.292C12.7522 12.7084 13.1253 12.3353 13.1253 11.8751V3.12508C13.1253 2.66484 12.7522 2.29175 12.292 2.29175Z" stroke="white" stroke-opacity="0.6" stroke-width="1.25" stroke-linecap="round" stroke-linejoin="round"/>
<path d="M7.70801 6.45837H7.29134C6.8311 6.45837 6.45801 6.83147 6.45801 7.29171V11.875C6.45801 12.3353 6.8311 12.7084 7.29134 12.7084H7.70801C8.16825 12.7084 8.54134 12.3353 8.54134 11.875V7.29171C8.54134 6.83147 8.16825 6.45837 7.70801 6.45837Z" stroke="white" stroke-opacity="0.6" stroke-width="1.25" stroke-linecap="round" stroke-linejoin="round"/>
<path d="M3.125 9.79175H2.70833C2.2481 9.79175 1.875 10.1648 1.875 10.6251V11.8751C1.875 12.3353 2.2481 12.7084 2.70833 12.7084H3.125C3.58524 12.7084 3.95833 12.3353 3.95833 11.8751V10.6251C3.95833 10.1648 3.58524 9.79175 3.125 9.79175Z" stroke="white" stroke-opacity="0.6" stroke-width="1.25" stroke-linecap="round" stroke-linejoin="round"/>
<path d="M5.20801 2.29175H7.29134V4.37508" stroke="white" stroke-opacity="0.6" stroke-width="1.25" stroke-linecap="round" stroke-linejoin="round"/>
<path d="M7.08366 2.50006L2.29199 7.29173" stroke="white" stroke-opacity="0.6" stroke-width="1.25" stroke-linecap="round" stroke-linejoin="round"/>
</svg>
