<svg width="18" height="18" viewBox="0 0 18 18" fill="none" xmlns="http://www.w3.org/2000/svg">
<path d="M18 9C18 13.9706 13.9706 18 9 18C4.02942 18 0 13.9706 0 9C0 4.02942 4.02942 0 9 0C13.9706 0 18 4.02942 18 9ZM12.8594 7.71786C13.0386 6.52032 12.1267 5.87653 10.8798 5.44707L11.2843 3.82482L10.2967 3.57873L9.90294 5.15823C9.64332 5.09353 9.37666 5.03252 9.1117 4.97206L9.50832 3.38219L8.52129 3.1361L8.11655 4.75777C7.90164 4.70881 7.69068 4.66044 7.48593 4.60956L7.48706 4.60448L6.12508 4.26444L5.86237 5.31911C5.86237 5.31911 6.59511 5.48702 6.57965 5.4974C6.97964 5.59724 7.05194 5.8619 7.03981 6.0717L6.57907 7.91978C6.60665 7.92682 6.64236 7.93695 6.68174 7.9527C6.64882 7.94453 6.61366 7.93553 6.57737 7.92682L5.93154 10.5157C5.88259 10.6372 5.75855 10.8195 5.47897 10.7503C5.4888 10.7646 4.76115 10.5711 4.76115 10.5711L4.27086 11.7015L5.55605 12.0218C5.79513 12.0817 6.02946 12.1444 6.26008 12.2035L5.85138 13.8442L6.83782 14.0903L7.24257 12.467C7.50417 12.5379 7.76653 12.6059 8.0296 12.6712L7.62623 14.2869L8.6138 14.533L9.0225 12.8953C10.7065 13.214 11.9729 13.0854 12.5059 11.5625C12.9354 10.3362 12.4845 9.62887 11.5985 9.16762C12.2437 9.01891 12.7298 8.59453 12.8594 7.71786ZM10.603 10.8816C10.2978 12.1079 8.23297 11.445 7.56352 11.2787L8.10584 9.10499C8.77525 9.27203 10.922 9.60278 10.603 10.8816ZM10.9085 7.70015C10.63 8.81557 8.91138 8.24886 8.35389 8.10994L8.84555 6.1384C9.40308 6.27732 11.1985 6.53661 10.9085 7.70015Z" fill="#F99215"/>
</svg>
