<svg width="167" height="36" viewBox="0 0 167 36" fill="none" xmlns="http://www.w3.org/2000/svg">
<path d="M24.4002 7.94458L16.8745 7.94458L16.8745 0.946045L0 0.946045L3.12905e-09 27.7916L6.83842 27.7916L6.83842 34.7856L32.5846 34.7856L32.5846 16.3312L24.4054 7.94547L24.4011 7.94547L24.4002 7.94458ZM24.5853 26.5975L7.99844 26.5975L7.99844 9.1386L15.7093 9.1386L15.7093 16.1327L24.5853 16.1327L24.5853 26.5931L24.5853 26.5975Z" fill="#CAFBFF"/>
<path d="M48.47 1.32892L48.47 16.6349L49.3945 16.6349C52.5409 11.7546 54.9435 9.95332 58.0899 9.95332C63.7335 9.95332 67.4299 14.7846 67.4299 22.321C67.4299 29.8573 63.5919 35.3056 58.0899 35.3056C54.9009 35.3056 52.726 33.5524 49.3945 28.1041L48.47 28.1041L48.47 34.4989L44.0298 34.4989L44.0298 1.32892L48.47 1.32892ZM57.1141 31.3273C60.3508 31.3273 63.0323 27.4425 63.0323 22.3245C63.0323 17.2065 60.4446 13.9387 57.1141 13.9387C54.2944 13.9387 52.3515 15.8326 48.2337 22.3245C52.6261 29.6231 54.2466 31.3273 57.1141 31.3273Z" fill="white"/>
<path d="M74.9687 1.32892L74.9687 7.25274L70.2965 7.25274L70.2965 1.32892L74.9687 1.32892ZM74.8271 10.8072L74.8271 34.4989L70.3869 34.4989L70.3869 10.8072L74.8271 10.8072Z" fill="white"/>
<path d="M87.4073 34.6886C82.5979 34.6886 80.1006 31.9889 80.1006 26.919L80.1006 14.1239L76.8638 14.1239L76.8638 10.8072L80.1006 10.8072L80.1006 4.64563L84.5408 4.64563L84.5408 10.8072L91.1081 10.8072L91.1081 14.1239L84.5408 14.1239L84.5408 26.919C84.5408 29.6186 85.7442 30.9444 88.1468 30.9444C88.981 30.9444 89.7195 30.8518 90.8292 30.6586L91.3835 34.2612C89.995 34.5479 88.749 34.6886 87.4073 34.6886Z" fill="white"/>
<path d="M97.8136 10.8071L97.8136 16.5413L98.7381 16.5413C101.326 11.613 103.225 9.95236 106.277 9.95236L107.48 9.95236L107.48 15.2111L104.846 15.2111C102.302 15.2111 100.359 17.2501 97.8179 22.791L97.8179 34.4935L93.3777 34.4935L93.3777 10.8063L97.8179 10.8063L97.8136 10.8063L97.8136 10.8071Z" fill="white"/>
<path d="M119.551 9.95331C126.303 9.95331 130.696 14.9306 130.696 22.6077L130.696 23.5061L112.708 23.5061C112.987 28.4344 115.712 31.5134 119.83 31.5134C123.436 31.5134 125.843 29.5715 126.768 25.8754L130.744 26.8709C129.309 32.2266 125.38 35.3056 119.831 35.3056C112.894 35.3056 108.411 30.3773 108.411 22.6513C108.411 14.9262 112.803 9.95331 119.557 9.95331L119.552 9.95331L119.551 9.95331ZM126.393 21.1358C126.024 16.2555 123.479 13.5069 119.551 13.5069C115.622 13.5069 113.167 16.4443 112.75 21.1358L126.393 21.1358Z" fill="white"/>
<path d="M141.978 13.4151C139.344 13.4151 137.586 14.9787 137.586 17.1593C137.586 22.6076 151.366 18.7709 151.366 27.8227C151.366 32.2756 147.851 35.359 142.718 35.359C138.046 35.359 134.349 33.5088 132.729 28.6294L136.429 27.3962C137.448 30.6639 139.761 31.8971 142.486 31.8971C145.4 31.8971 147.201 30.1929 147.201 27.7746C147.201 22.4669 133.468 26.4488 133.468 17.1112C133.468 12.9406 137.027 9.95416 142.069 9.95416C145.769 9.95416 149.607 12.0858 150.807 16.1157L147.247 17.2519C146.229 14.6003 143.873 13.4151 141.973 13.4151L141.977 13.4151H141.978Z" fill="white"/>
<path d="M163.022 34.6886C158.212 34.6886 155.715 31.9889 155.715 26.919L155.715 14.1239L152.478 14.1239L152.478 10.8072L155.715 10.8072L155.715 4.64563L160.155 4.64563L160.155 10.8072L166.723 10.8072L166.723 14.1239L160.155 14.1239L160.155 26.919C160.155 29.6186 161.359 30.9444 163.761 30.9444C164.595 30.9444 165.334 30.8518 166.444 30.6586L166.998 34.2612C165.61 34.5479 164.363 34.6886 163.022 34.6886Z" fill="white"/>
</svg>
