<svg width="103" height="22" viewBox="0 0 103 22" fill="none" xmlns="http://www.w3.org/2000/svg">
<path d="M15.0494 4.70396L10.4077 4.70396L10.4077 0.387451L0 0.387451L1.92991e-09 16.9451L4.21776 16.9451L4.21776 21.2588L20.0973 21.2588L20.0973 9.87664L15.0526 4.70451L15.05 4.70451L15.0494 4.70396ZM15.1636 16.2086L4.93323 16.2086L4.93323 5.4404L9.68906 5.4404L9.68906 9.75417L15.1636 9.75417L15.1636 16.2059L15.1636 16.2086Z" fill="#CAFBFF"/>
<path d="M29.8948 0.623535L29.8948 10.0638L30.4651 10.0638C32.4057 7.05382 33.8875 5.94284 35.8281 5.94284C39.309 5.94284 41.5888 8.92266 41.5888 13.5709C41.5888 18.2191 39.2216 21.5795 35.8281 21.5795C33.8613 21.5795 32.5198 20.4982 30.4651 17.1378L29.8948 17.1378L29.8948 21.0819L27.1563 21.0819L27.1562 0.623535L29.8948 0.623535ZM35.2263 19.1258C37.2226 19.1258 38.8765 16.7297 38.8765 13.5731C38.8765 10.4164 37.2805 8.40094 35.2263 8.40094C33.4872 8.40094 32.2888 9.56904 29.7491 13.5731C32.4582 18.0746 33.4577 19.1258 35.2263 19.1258Z" fill="white"/>
<path d="M46.2386 0.623535L46.2386 4.27719L43.3569 4.27719L43.3569 0.623535L46.2386 0.623535ZM46.1513 6.4695L46.1513 21.0819L43.4127 21.0819L43.4127 6.4695L46.1513 6.4695Z" fill="white"/>
<path d="M53.9107 21.1989C50.9443 21.1989 49.404 19.5338 49.404 16.4068L49.404 8.51515L47.4077 8.51515L47.4077 6.46948L49.404 6.46948L49.404 2.66919L52.1426 2.66919L52.1426 6.46948L56.1932 6.46948L56.1932 8.51515L52.1426 8.51515L52.1426 16.4068C52.1426 18.0719 52.8849 18.8896 54.3668 18.8896C54.8812 18.8896 55.3368 18.8325 56.0212 18.7133L56.3631 20.9353C55.5067 21.1121 54.7382 21.1989 53.9107 21.1989Z" fill="white"/>
<path d="M60.3287 6.46959L60.3287 10.0063L60.8989 10.0063C62.4949 6.96659 63.6665 5.94238 65.5486 5.94238L66.2909 5.94238L66.2909 9.18581L64.666 9.18581C63.0968 9.18581 61.8984 10.4434 60.3314 13.8609L60.3314 21.0787L57.5928 21.0787L57.5928 6.46904L60.3314 6.46904L60.3287 6.46904L60.3287 6.46959Z" fill="white"/>
<path d="M73.7356 5.94287C77.9003 5.94287 80.61 9.01276 80.61 13.7477L80.61 14.3019L69.5152 14.3019C69.6872 17.3415 71.3684 19.2406 73.9082 19.2406C76.1323 19.2406 77.6168 18.0428 78.187 15.7632L80.6394 16.3772C79.7541 19.6805 77.3311 21.5795 73.9087 21.5795C69.6298 21.5795 66.865 18.5398 66.865 13.7746C66.865 9.01001 69.5741 5.94287 73.7394 5.94287L73.7367 5.94287L73.7356 5.94287ZM77.956 12.84C77.7283 9.82993 76.1585 8.13463 73.7356 8.13463C71.3127 8.13463 69.7987 9.94635 69.5414 12.84L77.956 12.84Z" fill="white"/>
<path d="M87.5685 8.07812C85.9435 8.07812 84.8594 9.04247 84.8594 10.3874C84.8594 13.7478 93.3587 11.3814 93.3587 16.9643C93.3587 19.7107 91.1903 21.6125 88.0246 21.6125C85.1429 21.6125 82.863 20.4713 81.8635 17.4619L84.146 16.7013C84.7742 18.7167 86.2008 19.4773 87.8815 19.4773C89.679 19.4773 90.7894 18.4262 90.7894 16.9347C90.7894 13.661 82.3196 16.1169 82.3196 10.3577C82.3196 7.78541 84.5148 5.94348 87.6242 5.94348C89.9067 5.94348 92.2739 7.2582 93.0135 9.74377L90.8184 10.4445C90.1903 8.80907 88.7374 8.07812 87.5653 8.07812L87.5679 8.07812H87.5685Z" fill="white"/>
<path d="M100.548 21.1989C97.5815 21.1989 96.0413 19.5338 96.0413 16.4068L96.0413 8.51515L94.0449 8.51515L94.0449 6.46948L96.0413 6.46948L96.0413 2.66919L98.7799 2.66919L98.7799 6.46948L102.83 6.46948L102.83 8.51515L98.7799 8.51515L98.7799 16.4068C98.7799 18.0719 99.5221 18.8896 101.004 18.8896C101.518 18.8896 101.974 18.8325 102.658 18.7133L103 20.9353C102.144 21.1121 101.375 21.1989 100.548 21.1989Z" fill="white"/>
</svg>
