<svg width="18" height="18" viewBox="0 0 18 18" fill="none" xmlns="http://www.w3.org/2000/svg">
<g clip-path="url(#clip0_191_519)">
<path d="M5.61915 3.42028C5.21458 3.42028 4.88623 3.09193 4.88623 2.68736V0.732917C4.88623 0.328347 5.21458 0 5.61915 0C6.02372 0 6.35206 0.328347 6.35206 0.732917V2.68736C6.35206 3.09193 6.02372 3.42028 5.61915 3.42028Z" fill="white"/>
<path d="M11.9707 3.42028C11.5661 3.42028 11.2378 3.09193 11.2378 2.68736V0.732917C11.2378 0.328347 11.5661 0 11.9707 0C12.3753 0 12.7036 0.328347 12.7036 0.732917V2.68736C12.7036 3.09193 12.3753 3.42028 11.9707 3.42028Z" fill="white"/>
<path d="M13.4368 1.95444H4.15318C2.67074 1.95444 1.46582 3.15935 1.46582 4.6418V12.9482C1.46582 14.4306 2.67074 15.6355 4.15318 15.6355H13.4368C14.9192 15.6355 16.1242 14.4306 16.1242 12.9482V4.6418C16.1242 3.15935 14.9192 1.95444 13.4368 1.95444ZM13.4368 14.1697H4.15318C3.47988 14.1697 2.93165 13.6215 2.93165 12.9482V6.84055H14.6583V12.9482C14.6583 13.6215 14.1101 14.1697 13.4368 14.1697Z" fill="white"/>
<path d="M8.79509 8.06207C8.25664 8.06207 7.81787 8.50085 7.81787 9.03929C7.81787 9.57774 8.25664 10.0165 8.79509 10.0165C9.33354 10.0165 9.77232 9.57774 9.77232 9.03929C9.77232 8.50085 9.33354 8.06207 8.79509 8.06207Z" fill="white"/>
<path d="M12.215 10.0165C12.7535 10.0165 13.1922 9.57774 13.1922 9.03929C13.1922 8.50085 12.7535 8.06207 12.215 8.06207C11.6766 8.06207 11.2378 8.50085 11.2378 9.03929C11.2378 9.57774 11.6766 10.0165 12.215 10.0165Z" fill="white"/>
<path d="M8.79509 10.9937C8.25664 10.9937 7.81787 11.4325 7.81787 11.971C7.81787 12.5094 8.25664 12.9482 8.79509 12.9482C9.33354 12.9482 9.77232 12.5094 9.77232 11.971C9.77232 11.4325 9.33354 10.9937 8.79509 10.9937Z" fill="white"/>
<path d="M5.37468 10.9937C4.83623 10.9937 4.39746 11.4325 4.39746 11.971C4.39746 12.5094 4.83623 12.9482 5.37468 12.9482C5.91313 12.9482 6.35191 12.5094 6.35191 11.971C6.35191 11.4325 5.91313 10.9937 5.37468 10.9937Z" fill="white"/>
<path d="M12.215 10.9937C11.6766 10.9937 11.2378 11.4325 11.2378 11.971C11.2378 12.5094 11.6766 12.9482 12.215 12.9482C12.7535 12.9482 13.1922 12.5094 13.1922 11.971C13.1922 11.4325 12.7535 10.9937 12.215 10.9937Z" fill="white"/>
</g>
<defs>
<clipPath id="clip0_191_519">
<rect width="17.59" height="17.59" fill="white"/>
</clipPath>
</defs>
</svg>
