<svg width="18" height="18" viewBox="0 0 18 18" fill="none" xmlns="http://www.w3.org/2000/svg">
<path d="M14.4141 1.95441H13.9255C12.981 1.95441 12.2153 2.72006 12.2153 3.66455V13.9254C12.2153 14.8699 12.981 15.6355 13.9255 15.6355H14.4141C15.3586 15.6355 16.1242 14.8699 16.1242 13.9254V3.66455C16.1242 2.72006 15.3586 1.95441 14.4141 1.95441Z" fill="white"/>
<path d="M9.03908 6.84052H8.55047C7.60599 6.84052 6.84033 7.60617 6.84033 8.55065V13.9254C6.84033 14.8699 7.60599 15.6355 8.55047 15.6355H9.03908C9.98357 15.6355 10.7492 14.8699 10.7492 13.9254V8.55065C10.7492 7.60617 9.98357 6.84052 9.03908 6.84052Z" fill="white"/>
<path d="M3.66457 10.7495H3.17596C2.23148 10.7495 1.46582 11.5151 1.46582 12.4596V13.9254C1.46582 14.8699 2.23148 15.6356 3.17596 15.6356H3.66457C4.60905 15.6356 5.37471 14.8699 5.37471 13.9254V12.4596C5.37471 11.5151 4.60905 10.7495 3.66457 10.7495Z" fill="white"/>
<path d="M2.68775 9.28357C2.87538 9.28357 3.063 9.21224 3.20568 9.06858L7.81817 4.4561V5.1294C7.81817 5.53397 8.14651 5.86232 8.55108 5.86232C8.95565 5.86232 9.284 5.53397 9.284 5.1294V2.68732C9.284 2.28275 8.95565 1.95441 8.55108 1.95441H6.10803C5.70346 1.95441 5.37511 2.28275 5.37511 2.68732C5.37511 3.09189 5.70346 3.42024 6.10803 3.42024H6.78133L2.16982 8.03273C1.8835 8.31906 1.8835 8.78324 2.16982 9.06956C2.3125 9.21224 2.50012 9.28455 2.68775 9.28455V9.28357Z" fill="white"/>
</svg>
