<svg width="14" height="14" viewBox="0 0 14 14" fill="none" xmlns="http://www.w3.org/2000/svg">
<path d="M14 7C14 10.866 10.866 14 7 14C3.134 14 0 10.866 0 7C0 3.134 3.134 0 7 0C10.866 0 14 3.134 14 7ZM10.0018 6.00278C10.1411 5.07136 9.43188 4.57063 8.46207 4.23661L8.77667 2.97486L8.00856 2.78346L7.70229 4.01196C7.50036 3.96163 7.29296 3.91419 7.08688 3.86716L7.39536 2.63059L6.62767 2.43919L6.31287 3.70049C6.14572 3.66241 5.98164 3.62479 5.82239 3.58521L5.82327 3.58126L4.76395 3.31679L4.55962 4.13708C4.55962 4.13708 5.12953 4.26768 5.11751 4.27576C5.42861 4.35341 5.48484 4.55926 5.47541 4.72243L5.11706 6.15983C5.13851 6.16531 5.16628 6.17318 5.19691 6.18543C5.17131 6.17908 5.14396 6.17208 5.11573 6.16531L4.61342 8.17888C4.57535 8.27338 4.47887 8.41513 4.26142 8.36133C4.26907 8.37248 3.70311 8.22198 3.70311 8.22198L3.32178 9.10113L4.32137 9.35028C4.50732 9.39688 4.68958 9.44565 4.86895 9.49158L4.55107 10.7677L5.31831 10.9591L5.63311 9.69652C5.83658 9.75167 6.04063 9.80461 6.24524 9.85535L5.93151 11.112L6.69962 11.3034L7.0175 10.0297C8.32729 10.2775 9.31223 10.1775 9.72678 8.99302C10.0609 8.03927 9.71016 7.48912 9.02102 7.13037C9.52288 7.01471 9.90094 6.68463 10.0018 6.00278ZM8.24679 8.46348C8.00941 9.41723 6.40342 8.90163 5.88274 8.77235L6.30454 7.08166C6.8252 7.21158 8.49487 7.46883 8.24679 8.46348ZM8.48437 5.98901C8.26779 6.85656 6.93107 6.41578 6.49747 6.30773L6.87987 4.77431C7.3135 4.88236 8.70992 5.08403 8.48437 5.98901Z" fill="#F99215"/>
</svg>
