<svg width="15" height="15" viewBox="0 0 15 15" fill="none" xmlns="http://www.w3.org/2000/svg">
<path d="M4.79199 2.29167V0.625" stroke="white" stroke-opacity="0.6" stroke-width="1.25" stroke-linecap="round" stroke-linejoin="round"/>
<path d="M10.208 2.29167V0.625" stroke="white" stroke-opacity="0.6" stroke-width="1.25" stroke-linecap="round" stroke-linejoin="round"/>
<path d="M11.4583 2.29169H3.54167C2.62119 2.29169 1.875 3.03788 1.875 3.95835V11.0417C1.875 11.9622 2.62119 12.7084 3.54167 12.7084H11.4583C12.3788 12.7084 13.125 11.9622 13.125 11.0417V3.95835C13.125 3.03788 12.3788 2.29169 11.4583 2.29169Z" stroke="white" stroke-opacity="0.6" stroke-width="1.25" stroke-linecap="round" stroke-linejoin="round"/>
<path d="M1.875 5.20831H13.125" stroke="white" stroke-opacity="0.6" stroke-width="1.25" stroke-linecap="round" stroke-linejoin="round"/>
<path d="M7.50033 6.875C7.04116 6.875 6.66699 7.24917 6.66699 7.70833C6.66699 8.1675 7.04116 8.54167 7.50033 8.54167C7.95949 8.54167 8.33366 8.1675 8.33366 7.70833C8.33366 7.24917 7.95949 6.875 7.50033 6.875Z" fill="white" fill-opacity="0.6"/>
<path d="M10.4163 8.54167C10.8755 8.54167 11.2497 8.1675 11.2497 7.70833C11.2497 7.24917 10.8755 6.875 10.4163 6.875C9.95717 6.875 9.58301 7.24917 9.58301 7.70833C9.58301 8.1675 9.95717 8.54167 10.4163 8.54167Z" fill="white" fill-opacity="0.6"/>
<path d="M7.50033 9.375C7.04116 9.375 6.66699 9.74917 6.66699 10.2083C6.66699 10.6675 7.04116 11.0417 7.50033 11.0417C7.95949 11.0417 8.33366 10.6675 8.33366 10.2083C8.33366 9.74917 7.95949 9.375 7.50033 9.375Z" fill="white" fill-opacity="0.6"/>
<path d="M4.58333 9.375C4.12417 9.375 3.75 9.74917 3.75 10.2083C3.75 10.6675 4.12417 11.0417 4.58333 11.0417C5.0425 11.0417 5.41667 10.6675 5.41667 10.2083C5.41667 9.74917 5.0425 9.375 4.58333 9.375Z" fill="white" fill-opacity="0.6"/>
<path d="M10.4163 9.375C9.95717 9.375 9.58301 9.74917 9.58301 10.2083C9.58301 10.6675 9.95717 11.0417 10.4163 11.0417C10.8755 11.0417 11.2497 10.6675 11.2497 10.2083C11.2497 9.74917 10.8755 9.375 10.4163 9.375Z" fill="white" fill-opacity="0.6"/>
</svg>
