<svg width="14" height="15" viewBox="0 0 14 15" fill="none" xmlns="http://www.w3.org/2000/svg">
<path d="M6.2002 13.6V12" stroke="white" stroke-opacity="0.6" stroke-width="1.6" stroke-linecap="round" stroke-linejoin="round"/>
<path d="M11.0001 4.80007C11.0001 6.12327 9.9233 7.20007 8.6001 7.20007C8.1585 7.20007 7.8001 6.84167 7.8001 6.40007C7.8001 5.95847 8.1585 5.60007 8.6001 5.60007C9.0417 5.60007 9.4001 5.24087 9.4001 4.80007V4.65287C8.7225 4.41127 8.1849 3.87607 7.9425 3.20007H3.8001C2.0353 3.20007 0.600098 4.63527 0.600098 6.40007V10.8001C0.600098 11.9025 1.4977 12.8001 2.6001 12.8001H11.4001C12.5025 12.8001 13.4001 11.9025 13.4001 10.8001V6.40007C13.4001 5.56007 13.0681 4.80007 12.5361 4.22887C12.1185 4.58007 11.5873 4.80007 11.0001 4.80007ZM5.4001 11.2001H2.6001C2.3793 11.2001 2.2001 11.0209 2.2001 10.8001V6.40007C2.2001 5.51767 2.9177 4.80007 3.8001 4.80007C4.6825 4.80007 5.4001 5.51767 5.4001 6.40007V11.2001Z" fill="white" fill-opacity="0.6"/>
<path d="M10.9998 0.800049H8.5998C8.15798 0.800049 7.7998 1.15822 7.7998 1.60005V2.40005C7.7998 2.84188 8.15798 3.20005 8.5998 3.20005H10.9998C11.4416 3.20005 11.7998 2.84188 11.7998 2.40005V1.60005C11.7998 1.15822 11.4416 0.800049 10.9998 0.800049Z" fill="white" fill-opacity="0.6"/>
<path d="M8.6001 2.40002V4.80002" stroke="white" stroke-opacity="0.6" stroke-width="1.6" stroke-linecap="round" stroke-linejoin="round"/>
</svg>
