<svg width="22" height="22" viewBox="0 0 22 22" fill="none" xmlns="http://www.w3.org/2000/svg">
<path d="M19.9354 11.2116C19.9354 10.5516 19.8762 9.91697 19.7662 9.30774H11V12.9124H16.0092C15.7892 14.0716 15.1292 15.0531 14.1392 15.7131V18.057H17.16C18.92 16.4324 19.9354 14.0462 19.9354 11.2116Z" fill="#D4FAFE"/>
<path d="M11 20.3077C13.5131 20.3077 15.62 19.4785 17.16 18.057L14.1392 15.7131C13.31 16.2716 12.2523 16.6101 11 16.6101C8.58 16.6101 6.52384 14.977 5.78769 12.777H2.69077V15.1801C4.2223 18.2177 7.36153 20.3077 11 20.3077Z" fill="#D4FAFE"/>
<path d="M5.78771 12.7685C5.60155 12.21 5.49155 11.6177 5.49155 11C5.49155 10.3823 5.60155 9.79003 5.78771 9.23157V6.82849H2.69078C2.05617 8.0808 1.69232 9.49388 1.69232 11C1.69232 12.5062 2.05617 13.9193 2.69078 15.1716L5.10232 13.2931L5.78771 12.7685Z" fill="#D4FAFE"/>
<path d="M11 5.39854C12.3708 5.39854 13.5892 5.87238 14.5623 6.78623L17.2277 4.12084C15.6115 2.61469 13.5131 1.69238 11 1.69238C7.36153 1.69238 4.2223 3.78238 2.69077 6.82854L5.78769 9.23161C6.52384 7.03161 8.58 5.39854 11 5.39854Z" fill="#D4FAFE"/>
</svg>
