<svg width="16" height="16" viewBox="0 0 16 16" fill="none" xmlns="http://www.w3.org/2000/svg">
<g clip-path="url(#clip0_307_718)">
<path d="M7.99967 2.22222C7.63167 2.22222 7.33301 1.92356 7.33301 1.55556V0.666667C7.33301 0.298667 7.63167 0 7.99967 0C8.36767 0 8.66634 0.298667 8.66634 0.666667V1.55556C8.66634 1.92356 8.36767 2.22222 7.99967 2.22222Z" fill="white" fill-opacity="0.6"/>
<path d="M12.5571 4.11021C12.3864 4.11021 12.2157 4.04532 12.086 3.91465C11.8255 3.65421 11.8255 3.23199 12.086 2.97154L12.7144 2.3431C12.9748 2.08266 13.3971 2.08266 13.6575 2.3431C13.918 2.60354 13.918 3.02577 13.6575 3.28621L13.0291 3.91465C12.8993 4.04443 12.7277 4.11021 12.5571 4.11021Z" fill="white" fill-opacity="0.6"/>
<path d="M15.3329 8.66665H14.444C14.076 8.66665 13.7773 8.36798 13.7773 7.99998C13.7773 7.63198 14.076 7.33331 14.444 7.33331H15.3329C15.7009 7.33331 15.9996 7.63198 15.9996 7.99998C15.9996 8.36798 15.7009 8.66665 15.3329 8.66665Z" fill="white" fill-opacity="0.6"/>
<path d="M3.44333 4.11021C3.27266 4.11021 3.10199 4.04532 2.97222 3.91465L2.34377 3.28621C2.08333 3.02577 2.08333 2.60354 2.34377 2.3431C2.60422 2.08266 3.02644 2.08266 3.28688 2.3431L3.91533 2.97154C4.17577 3.23199 4.17577 3.65421 3.91533 3.91465C3.78555 4.04443 3.61399 4.11021 3.44333 4.11021Z" fill="white" fill-opacity="0.6"/>
<path d="M1.55556 8.66665H0.666667C0.298667 8.66665 0 8.36798 0 7.99998C0 7.63198 0.298667 7.33331 0.666667 7.33331H1.55556C1.92356 7.33331 2.22222 7.63198 2.22222 7.99998C2.22222 8.36798 1.92356 8.66665 1.55556 8.66665Z" fill="white" fill-opacity="0.6"/>
<path d="M11.0806 4.20358C9.93129 3.27024 8.42551 2.91113 6.94996 3.22135C5.01396 3.62669 3.49751 5.21869 3.17751 7.18402C2.82818 9.32713 3.88596 11.3867 5.77751 12.3476V14C5.77751 14.8578 6.47529 15.5556 7.33307 15.5556H8.6664C9.52418 15.5556 10.222 14.8578 10.222 14V12.3476C11.8557 11.5174 12.8886 9.85691 12.8886 8.00002C12.8886 6.52091 12.2291 5.13691 11.0806 4.20358ZM8.6664 14.2222H7.33307C7.2104 14.2222 7.11085 14.1227 7.11085 14V12.4445H8.88862V14C8.88862 14.1227 8.78907 14.2222 8.6664 14.2222Z" fill="white" fill-opacity="0.6"/>
</g>
<defs>
<clipPath id="clip0_307_718">
<rect width="16" height="16" fill="white"/>
</clipPath>
</defs>
</svg>
