<svg width="18" height="18" viewBox="0 0 18 18" fill="none" xmlns="http://www.w3.org/2000/svg">
<g clip-path="url(#clip0_200_530)">
<path d="M5.82423 3.62526C5.41966 3.62526 5.09131 3.29692 5.09131 2.89235V0.937903C5.09131 0.533333 5.41966 0.204987 5.82423 0.204987C6.2288 0.204987 6.55714 0.533333 6.55714 0.937903V2.89235C6.55714 3.29692 6.2288 3.62526 5.82423 3.62526Z" fill="white"/>
<path d="M12.1758 3.62526C11.7712 3.62526 11.4429 3.29692 11.4429 2.89235V0.937903C11.4429 0.533333 11.7712 0.204987 12.1758 0.204987C12.5804 0.204987 12.9087 0.533333 12.9087 0.937903V2.89235C12.9087 3.29692 12.5804 3.62526 12.1758 3.62526Z" fill="white"/>
<path d="M13.6419 2.15945H4.35826C2.87581 2.15945 1.6709 3.36437 1.6709 4.84682V13.1532C1.6709 14.6357 2.87581 15.8406 4.35826 15.8406H13.6419C15.1243 15.8406 16.3292 14.6357 16.3292 13.1532V4.84682C16.3292 3.36437 15.1243 2.15945 13.6419 2.15945ZM13.6419 14.3747H4.35826C3.68495 14.3747 3.13673 13.8265 3.13673 13.1532V7.04557H14.8634V13.1532C14.8634 13.8265 14.3152 14.3747 13.6419 14.3747Z" fill="white"/>
</g>
<defs>
<clipPath id="clip0_200_530">
<rect width="17.59" height="17.59" fill="white" transform="translate(0.205078 0.204987)"/>
</clipPath>
</defs>
</svg>
