<svg width="13" height="9" viewBox="0 0 13 9" fill="none" xmlns="http://www.w3.org/2000/svg">
<path d="M12.7537 2.97188C12.8527 2.89922 13 2.96719 13 3.08203V7.875C13 8.49609 12.4541 9 11.7812 9H1.21875C0.545898 9 0 8.49609 0 7.875V3.08438C0 2.96719 0.144727 2.90156 0.246289 2.97422C0.815039 3.38203 1.56914 3.9 4.15898 5.63672C4.69473 5.99766 5.59863 6.75703 6.5 6.75234C7.40645 6.75938 8.32812 5.98359 8.84355 5.63672C11.4334 3.9 12.185 3.37969 12.7537 2.97188ZM6.5 6C7.08906 6.00938 7.93711 5.31563 8.36367 5.02969C11.733 2.77266 11.9895 2.57578 12.7664 2.01328C12.9137 1.90781 13 1.74375 13 1.57031V1.125C13 0.503906 12.4541 0 11.7812 0H1.21875C0.545898 0 0 0.503906 0 1.125V1.57031C0 1.74375 0.0863281 1.90547 0.233594 2.01328C1.01055 2.57344 1.26699 2.77266 4.63633 5.02969C5.06289 5.31563 5.91094 6.00938 6.5 6Z" fill="#D4FAFE"/>
</svg>
