<svg width="19" height="19" viewBox="0 0 19 19" fill="none" xmlns="http://www.w3.org/2000/svg">
<g clip-path="url(#clip0_191_386)">
<path d="M18.2955 9.74432V8.76705C18.2955 7.82398 17.5283 7.05682 16.5852 7.05682H12.1875C11.2444 7.05682 10.4773 7.82398 10.4773 8.76705V9.74432C10.4773 9.87919 10.4968 10.0082 10.5261 10.1333C9.92316 10.3981 9.5 10.9991 9.5 11.6989V12.6761C9.5 13.3759 9.92316 13.9769 10.5261 14.2417C10.4968 14.3668 10.4773 14.4968 10.4773 14.6307V15.608C10.4773 16.551 11.2444 17.3182 12.1875 17.3182H16.5852C17.5283 17.3182 18.2955 16.551 18.2955 15.608V14.6307C18.2955 13.931 17.8723 13.3299 17.2693 13.0651C17.2986 12.94 17.3182 12.81 17.3182 12.6761V11.6989C17.3182 11.564 17.2986 11.435 17.2693 11.3099C17.8723 11.0451 18.2955 10.4441 18.2955 9.74432ZM11.9432 8.76705C11.9432 8.63219 12.0526 8.52273 12.1875 8.52273H16.5852C16.7201 8.52273 16.8295 8.63219 16.8295 8.76705V9.74432C16.8295 9.87919 16.7201 9.98864 16.5852 9.98864H12.1875C12.0526 9.98864 11.9432 9.87919 11.9432 9.74432V8.76705ZM16.8295 15.608C16.8295 15.7428 16.7201 15.8523 16.5852 15.8523H12.1875C12.0526 15.8523 11.9432 15.7428 11.9432 15.608V14.6307C11.9432 14.4958 12.0526 14.3864 12.1875 14.3864H16.5852C16.7201 14.3864 16.8295 14.4958 16.8295 14.6307V15.608Z" fill="white"/>
<path d="M14.6305 1.68182H4.36914C2.88466 1.68182 1.68164 2.88485 1.68164 4.36932V10.7216C1.68164 12.2061 2.88466 13.4091 4.36914 13.4091H7.7896C8.19419 13.4091 8.52255 13.0807 8.52255 12.6761C8.52255 12.2716 8.19419 11.9432 7.7896 11.9432H6.0051C5.71289 10.5095 4.58121 9.37785 3.14755 9.08564V6.00626C4.58121 5.71405 5.71289 4.58237 6.0051 3.14871H12.9936C13.3356 4.82571 14.826 6.08932 16.6036 6.08053C16.9994 6.07857 17.318 5.74337 17.318 5.34757V4.3703C17.318 2.88582 16.115 1.6828 14.6305 1.6828V1.68182Z" fill="white"/>
<path d="M9.01136 9.40913V8.76706C9.01136 7.27574 10.0482 6.02972 11.436 5.69061C10.9464 5.17949 10.2613 4.85797 9.5 4.85797C8.01748 4.85797 6.8125 6.06295 6.8125 7.54547C6.8125 8.68008 7.52102 9.64759 8.51686 10.0404C8.65759 9.81177 8.81689 9.59579 9.01136 9.40913Z" fill="white"/>
</g>
<defs>
<clipPath id="clip0_191_386">
<rect width="17.5909" height="17.5909" fill="white" transform="translate(0.70459 0.704529)"/>
</clipPath>
</defs>
</svg>
