<svg width="17" height="18" viewBox="0 0 17 18" fill="none" xmlns="http://www.w3.org/2000/svg">
<g clip-path="url(#clip0_288_61)">
<path d="M16.0862 4.92864C16.0103 4.8813 15.9237 4.85404 15.8344 4.84944C15.7451 4.84483 15.6561 4.86302 15.5757 4.9023C12.7483 6.28541 10.7289 5.63732 8.59435 4.95367C6.34911 4.23907 4.03076 3.49812 0.822607 5.06432C0.734007 5.10758 0.659322 5.17483 0.607045 5.25843C0.554768 5.34203 0.526995 5.43861 0.526886 5.53721V13.4361C0.526873 13.5255 0.549607 13.6134 0.592949 13.6916C0.63629 13.7698 0.698813 13.8357 0.774633 13.883C0.850454 13.9304 0.937079 13.9577 1.02636 13.9623C1.11563 13.967 1.20463 13.9488 1.28496 13.9096C4.11242 12.5265 6.13176 13.1746 8.26965 13.8582C9.53684 14.2633 10.8277 14.6763 12.2872 14.6763C13.4128 14.6763 14.6405 14.4312 16.0355 13.7502C16.1241 13.707 16.1987 13.6397 16.251 13.5561C16.3033 13.4725 16.3311 13.3759 16.3312 13.2773V5.37848C16.332 5.28885 16.3099 5.2005 16.267 5.12179C16.2241 5.04307 16.1619 4.97659 16.0862 4.92864ZM3.16137 10.988C3.16137 11.1277 3.10586 11.2617 3.00705 11.3605C2.90824 11.4594 2.77422 11.5149 2.63448 11.5149C2.49473 11.5149 2.36072 11.4594 2.2619 11.3605C2.16309 11.2617 2.10758 11.1277 2.10758 10.988V6.77279C2.10758 6.63304 2.16309 6.49903 2.2619 6.40021C2.36072 6.3014 2.49473 6.24589 2.63448 6.24589C2.77422 6.24589 2.90824 6.3014 3.00705 6.40021C3.10586 6.49903 3.16137 6.63304 3.16137 6.77279V10.988ZM8.43035 11.5149C8.01351 11.5149 7.60603 11.3913 7.25944 11.1597C6.91285 10.9281 6.64271 10.5989 6.48319 10.2138C6.32367 9.8287 6.28194 9.40494 6.36326 8.9961C6.44458 8.58727 6.64531 8.21173 6.94006 7.91698C7.23481 7.62223 7.61035 7.4215 8.01918 7.34018C8.42801 7.25886 8.85178 7.3006 9.23689 7.46011C9.622 7.61963 9.95116 7.88977 10.1827 8.23636C10.4143 8.58295 10.5379 8.99043 10.5379 9.40727C10.5379 9.96624 10.3159 10.5023 9.92064 10.8976C9.52539 11.2928 8.98932 11.5149 8.43035 11.5149ZM14.7531 12.0418C14.7531 12.1815 14.6976 12.3155 14.5988 12.4143C14.5 12.5131 14.366 12.5687 14.2262 12.5687C14.0865 12.5687 13.9525 12.5131 13.8537 12.4143C13.7548 12.3155 13.6993 12.1815 13.6993 12.0418V7.82658C13.6993 7.68684 13.7548 7.55282 13.8537 7.45401C13.9525 7.3552 14.0865 7.29968 14.2262 7.29968C14.366 7.29968 14.5 7.3552 14.5988 7.45401C14.6976 7.55282 14.7531 7.68684 14.7531 7.82658V12.0418Z" fill="white" fill-opacity="0.5"/>
</g>
<defs>
<clipPath id="clip0_288_61">
<rect width="16.8607" height="16.8607" fill="white" transform="translate(0 0.976929)"/>
</clipPath>
</defs>
</svg>
