<svg width="20" height="21" viewBox="0 0 20 21" fill="none" xmlns="http://www.w3.org/2000/svg">
<g clip-path="url(#clip0_105_95)">
<path d="M8.44608 2.69604C8.05317 3.9961 8.0203 5.37838 8.35098 6.69564C8.68165 8.0129 9.36348 9.21577 10.3238 10.1761C11.2842 11.1365 12.487 11.8183 13.8043 12.149C15.1216 12.4796 16.5038 12.4468 17.8039 12.0539C17.427 13.2931 16.7356 14.4136 15.797 15.3062C14.8584 16.1988 13.7047 16.8331 12.4481 17.1474C11.1916 17.4617 9.87504 17.4452 8.62676 17.0995C7.37848 16.7538 6.24101 16.0907 5.32512 15.1748C4.40923 14.2589 3.74615 13.1215 3.40046 11.8732C3.05477 10.6249 3.03826 9.30836 3.35252 8.0518C3.66679 6.79525 4.30113 5.64149 5.19375 4.70292C6.08638 3.76434 7.20686 3.07294 8.44608 2.69604Z" fill="white"/>
</g>
<defs>
<clipPath id="clip0_105_95">
<rect width="20" height="20" fill="white" transform="translate(0 0.5)"/>
</clipPath>
</defs>
</svg>
