<svg width="20" height="21" viewBox="0 0 20 21" fill="none" xmlns="http://www.w3.org/2000/svg">
<g clip-path="url(#clip0_114_20)">
<path d="M7.5 16.3334V16.9584C7.5 17.6214 7.76339 18.2573 8.23223 18.7261C8.70107 19.195 9.33696 19.4584 10 19.4584C10.663 19.4584 11.2989 19.195 11.7678 18.7261C12.2366 18.2573 12.5 17.6214 12.5 16.9584V16.3334" fill="white"/>
<path d="M4.37515 8.625C4.37515 7.13316 4.96778 5.70242 6.02267 4.64752C7.07756 3.59263 8.5083 3 10.0001 3C11.492 3 12.9227 3.59263 13.9776 4.64752C15.0325 5.70242 15.6251 7.13316 15.6251 8.625C15.6251 11.4234 16.2736 13.0469 16.7892 13.9375C16.844 14.0324 16.8728 14.1399 16.8729 14.2495C16.873 14.359 16.8444 14.4666 16.7898 14.5615C16.7352 14.6565 16.6566 14.7354 16.5619 14.7904C16.4672 14.8455 16.3597 14.8746 16.2501 14.875H3.75015C3.64076 14.8743 3.53345 14.845 3.43896 14.7899C3.34448 14.7347 3.26611 14.6558 3.2117 14.5609C3.15729 14.466 3.12874 14.3585 3.12891 14.2491C3.12907 14.1397 3.15795 14.0322 3.21265 13.9375C3.72749 13.0469 4.37515 11.4227 4.37515 8.625Z" fill="white"/>
</g>
<defs>
<clipPath id="clip0_114_20">
<rect width="20" height="20" fill="white" transform="translate(0 0.5)"/>
</clipPath>
</defs>
</svg>
