<svg width="18" height="18" viewBox="0 0 18 18" fill="none" xmlns="http://www.w3.org/2000/svg">
<path d="M2.134 8.056L7.884 2.306C8.404 1.786 9.094 1.5 9.828 1.5H14.75C15.715 1.5 16.5 2.285 16.5 3.25V8.171C16.5 8.906 16.214 9.596 15.694 10.116L9.944 15.866C9.408 16.402 8.704 16.67 8 16.67C7.296 16.67 6.592 16.402 6.056 15.866L2.134 11.944C1.614 11.425 1.328 10.735 1.328 10C1.328 9.265 1.614 8.575 2.134 8.056ZM11.75 7.5C12.439 7.5 13 6.939 13 6.25C13 5.561 12.439 5 11.75 5C11.061 5 10.5 5.561 10.5 6.25C10.5 6.939 11.061 7.5 11.75 7.5Z" fill="#D4FAFE"/>
</svg>
